<svg id="SvgjsSvg1082" width="482" height="297" xmlns="http://www.w3.org/2000/svg" version="1.1" xmlns:xlink="http://www.w3.org/1999/xlink" xmlns:svgjs="http://svgjs.com/svgjs" overflow="visible"><defs id="SvgjsDefs1083"></defs><g id="SvgjsG1084" class="signage-logo" opacity="1"><defs id="SvgjsDefs1075"></defs><g id="SvgjsG1076" transform="scale(1.3934285549522423)" opacity="1"><g id="SvgjsG1077" class="TskwAO0BG" transform="translate(90.1128384004078, -28.114095214348115) scale(1.7825318428253025)" light-content="false" fill="#ff7f66"><path d="M43.296 79.25c4.619 0 8.562-2.911 10.117-6.99.456-1.197.717-2.489.717-3.844 0-5.974-4.86-10.833-10.834-10.833-5.973 0-10.833 4.859-10.833 10.833 0 1.354.261 2.646.717 3.842 1.555 4.08 5.497 6.992 10.116 6.992zm.002-4.78c1.957 0 3.856-.237 5.679-.675a7.806 7.806 0 0 1-5.681 2.455 7.801 7.801 0 0 1-5.68-2.456c1.823.437 3.724.676 5.682.676zm-7.527-24.259c0-5.973-4.86-10.832-10.833-10.832-1.285 0-2.512.236-3.656.648-4.178 1.504-7.178 5.495-7.178 10.184 0 4.689 3 8.682 7.178 10.187 1.144.412 2.372.648 3.656.648 5.974 0 10.833-4.86 10.833-10.835zm-18.667 0a7.806 7.806 0 0 1 2.652-5.858 24.29 24.29 0 0 0 0 11.718 7.81 7.81 0 0 1-2.652-5.86zm26.192-7.681c5.974 0 10.834-4.86 10.834-10.833 0-1.214-.21-2.378-.58-3.469-1.451-4.275-5.495-7.364-10.254-7.364s-8.803 3.09-10.253 7.366c-.37 1.09-.58 2.254-.58 3.468 0 5.972 4.86 10.832 10.833 10.832zm0-18.667a7.817 7.817 0 0 1 6.039 2.85 24.32 24.32 0 0 0-6.037-.758c-2.085 0-4.109.264-6.041.759a7.82 7.82 0 0 1 6.039-2.851zm7.528 26.348c0 5.975 4.859 10.835 10.833 10.835 1.284 0 2.512-.236 3.655-.648 4.178-1.504 7.178-5.495 7.178-10.185s-3-8.681-7.178-10.186a10.757 10.757 0 0 0-3.655-.648c-5.973 0-10.833 4.859-10.833 10.832zm18.666.002a7.807 7.807 0 0 1-2.652 5.859 24.28 24.28 0 0 0 0-11.719 7.809 7.809 0 0 1 2.652 5.86zm-31.672 0a5.485 5.485 0 0 0 5.479 5.479c3.021 0 5.479-2.458 5.479-5.479s-2.458-5.48-5.479-5.48a5.486 5.486 0 0 0-5.479 5.48zm7.958 0a2.482 2.482 0 0 1-2.479 2.479 2.482 2.482 0 0 1-2.479-2.479 2.482 2.482 0 0 1 2.479-2.48 2.482 2.482 0 0 1 2.479 2.48z"></path><path d="M92.316 49.705a1.5 1.5 0 1 0-3 0c0 17.588-14.305 31.897-31.891 31.904 11.962-5.405 20.312-17.44 20.312-31.397 0-18.991-15.45-34.44-34.44-34.44s-34.44 15.45-34.44 34.44c0 18.991 15.45 34.441 34.44 34.441.581 0 1.158-.016 1.731-.044h12.387c19.245-.001 34.901-15.658 34.901-34.904zm-80.459.507c0-17.336 14.104-31.44 31.44-31.44s31.44 14.104 31.44 31.44c0 16.782-13.217 30.534-29.787 31.397h-1.653c-.11 0-.216.014-.32.036-17.188-.172-31.12-14.204-31.12-31.433z"></path></g><g id="SvgjsG1078" class="text" transform="translate(170.66000366210938, 212.43979610119982) scale(1)" light-content="false" fill="#ff7f66"><path d="M-140.01 -49.74L-170.66 -49.74L-170.66 0L-163.89 0L-163.89 -21.38L-143.48 -21.38L-143.48 -26.86L-163.89 -26.86L-163.89 -44.25L-140.01 -44.25Z M-125.47 -35.16L-131.64 -35.16L-131.64 0L-125.47 0ZM-124.08 -46.2C-124.08 -46.8 -124.2 -47.37 -124.44 -47.91C-124.69 -48.46 -125.01 -48.93 -125.41 -49.34C-125.82 -49.74 -126.29 -50.06 -126.82 -50.29C-127.35 -50.52 -127.92 -50.64 -128.52 -50.64C-129.12 -50.64 -129.68 -50.52 -130.2 -50.29C-130.72 -50.06 -131.19 -49.74 -131.59 -49.34C-132 -48.93 -132.32 -48.46 -132.55 -47.91C-132.78 -47.37 -132.89 -46.8 -132.89 -46.2C-132.89 -45.59 -132.78 -45.03 -132.55 -44.51C-132.32 -43.99 -132 -43.53 -131.59 -43.12C-131.19 -42.72 -130.72 -42.4 -130.2 -42.17C-129.68 -41.94 -129.12 -41.82 -128.52 -41.82C-127.92 -41.82 -127.35 -41.94 -126.82 -42.17C-126.29 -42.4 -125.82 -42.72 -125.41 -43.12C-125.01 -43.53 -124.69 -43.99 -124.44 -44.51C-124.2 -45.03 -124.08 -45.59 -124.08 -46.2Z M-107.7 -51.12L-113.87 -51.12L-113.87 0L-107.7 0Z M-96.8 0L-90.62 0L-90.62 -26.2C-89.53 -27.62 -88.34 -28.73 -87.03 -29.55C-85.72 -30.37 -84.3 -30.79 -82.78 -30.79C-80.6 -30.79 -78.95 -30.09 -77.81 -28.7C-76.68 -27.31 -76.11 -25.21 -76.11 -22.39L-76.11 0L-69.94 0L-69.94 -22.39C-69.94 -23.77 -69.73 -24.99 -69.33 -26.05C-68.92 -27.1 -68.37 -27.97 -67.68 -28.67C-66.98 -29.36 -66.18 -29.89 -65.27 -30.25C-64.35 -30.61 -63.39 -30.79 -62.37 -30.79C-60.08 -30.79 -58.33 -30.07 -57.13 -28.65C-55.92 -27.23 -55.32 -25.14 -55.32 -22.39L-55.32 0L-49.15 0L-49.15 -22.39C-49.15 -24.51 -49.41 -26.41 -49.94 -28.06C-50.48 -29.72 -51.25 -31.11 -52.25 -32.24C-53.26 -33.38 -54.48 -34.24 -55.93 -34.83C-57.38 -35.42 -59.03 -35.71 -60.88 -35.71C-62.03 -35.71 -63.17 -35.57 -64.3 -35.3C-65.42 -35.02 -66.48 -34.58 -67.47 -33.98C-68.47 -33.38 -69.36 -32.61 -70.16 -31.69C-70.96 -30.76 -71.6 -29.66 -72.09 -28.39C-72.73 -30.63 -73.79 -32.42 -75.26 -33.74C-76.73 -35.05 -78.66 -35.71 -81.04 -35.71C-83.17 -35.71 -85.04 -35.2 -86.65 -34.19C-88.25 -33.17 -89.71 -31.86 -91 -30.26L-91.45 -33.87C-91.68 -34.73 -92.24 -35.16 -93.12 -35.16L-96.8 -35.16Z M0.03 -41.96L1.67 -45.15C-0.05 -46.82 -2.05 -48.09 -4.34 -48.97C-6.63 -49.85 -9.16 -50.29 -11.94 -50.29C-14.42 -50.29 -16.61 -49.91 -18.52 -49.15C-20.43 -48.38 -22.03 -47.36 -23.32 -46.09C-24.62 -44.82 -25.61 -43.36 -26.29 -41.72C-26.97 -40.08 -27.31 -38.37 -27.31 -36.62C-27.31 -34.42 -26.97 -32.57 -26.29 -31.08C-25.61 -29.59 -24.71 -28.34 -23.6 -27.35C-22.49 -26.35 -21.22 -25.54 -19.8 -24.92C-18.38 -24.3 -16.92 -23.75 -15.43 -23.27C-13.93 -22.8 -12.48 -22.33 -11.05 -21.88C-9.63 -21.43 -8.36 -20.88 -7.25 -20.23C-6.14 -19.59 -5.25 -18.78 -4.56 -17.82C-3.88 -16.86 -3.54 -15.63 -3.54 -14.13C-3.54 -12.76 -3.77 -11.52 -4.23 -10.41C-4.7 -9.3 -5.36 -8.35 -6.23 -7.55C-7.1 -6.75 -8.16 -6.13 -9.41 -5.69C-10.66 -5.25 -12.08 -5.03 -13.67 -5.03C-15.6 -5.03 -17.22 -5.29 -18.55 -5.81C-19.88 -6.33 -21.02 -6.91 -21.95 -7.53C-22.89 -8.16 -23.67 -8.73 -24.3 -9.25C-24.92 -9.77 -25.48 -10.03 -25.96 -10.03C-26.28 -10.03 -26.58 -9.94 -26.85 -9.77C-27.11 -9.6 -27.34 -9.38 -27.52 -9.13L-29.47 -5.93C-27.59 -3.95 -25.33 -2.37 -22.68 -1.2C-20.03 -0.03 -17.1 0.56 -13.88 0.56C-11.25 0.56 -8.89 0.15 -6.82 -0.66C-4.75 -1.47 -3 -2.58 -1.58 -3.99C-0.16 -5.4 0.93 -7.06 1.67 -8.97C2.41 -10.88 2.78 -12.92 2.78 -15.1C2.78 -17.16 2.44 -18.89 1.75 -20.3C1.07 -21.72 0.17 -22.91 -0.95 -23.88C-2.08 -24.85 -3.35 -25.65 -4.77 -26.29C-6.2 -26.93 -7.65 -27.5 -9.15 -28.01C-10.64 -28.52 -12.1 -29.01 -13.52 -29.48C-14.94 -29.96 -16.21 -30.52 -17.34 -31.17C-18.46 -31.81 -19.36 -32.6 -20.04 -33.51C-20.73 -34.42 -21.07 -35.57 -21.07 -36.96C-21.07 -38.05 -20.87 -39.06 -20.48 -40C-20.08 -40.94 -19.5 -41.75 -18.72 -42.45C-17.95 -43.14 -16.98 -43.69 -15.83 -44.1C-14.67 -44.5 -13.34 -44.7 -11.84 -44.7C-10.24 -44.7 -8.88 -44.51 -7.76 -44.11C-6.63 -43.72 -5.67 -43.29 -4.88 -42.81C-4.08 -42.34 -3.42 -41.9 -2.9 -41.51C-2.38 -41.12 -1.92 -40.92 -1.53 -40.92C-1.16 -40.92 -0.86 -41.01 -0.62 -41.18C-0.39 -41.35 -0.17 -41.61 0.03 -41.96Z M24.3 -35.71C21.75 -35.71 19.46 -35.27 17.42 -34.38C15.39 -33.49 13.66 -32.26 12.25 -30.7C10.84 -29.14 9.76 -27.29 9.01 -25.16C8.25 -23.03 7.88 -20.74 7.88 -18.29C7.88 -15.26 8.3 -12.58 9.13 -10.24C9.96 -7.9 11.12 -5.94 12.62 -4.36C14.11 -2.77 15.88 -1.57 17.93 -0.75C19.97 0.08 22.21 0.49 24.64 0.49C25.91 0.49 27.2 0.38 28.49 0.16C29.79 -0.06 31.05 -0.39 32.26 -0.83C33.48 -1.27 34.61 -1.83 35.68 -2.52C36.74 -3.2 37.66 -4 38.42 -4.93L36.69 -7.18C36.41 -7.58 36.01 -7.77 35.51 -7.77C35.11 -7.77 34.64 -7.6 34.1 -7.24C33.56 -6.88 32.88 -6.49 32.07 -6.07C31.26 -5.66 30.29 -5.27 29.17 -4.91C28.05 -4.55 26.71 -4.37 25.16 -4.37C23.5 -4.37 21.99 -4.64 20.65 -5.19C19.31 -5.73 18.15 -6.55 17.18 -7.65C16.21 -8.75 15.44 -10.12 14.89 -11.77C14.33 -13.41 14.03 -15.34 13.99 -17.56L37.38 -17.56C37.96 -17.56 38.35 -17.72 38.56 -18.05C38.77 -18.37 38.87 -19.02 38.87 -19.99C38.87 -22.49 38.51 -24.72 37.78 -26.67C37.05 -28.63 36.04 -30.27 34.74 -31.6C33.45 -32.93 31.91 -33.95 30.13 -34.66C28.34 -35.36 26.4 -35.71 24.3 -35.71ZM24.43 -31.17C25.85 -31.17 27.1 -30.93 28.2 -30.46C29.3 -29.98 30.23 -29.31 30.99 -28.44C31.76 -27.57 32.34 -26.55 32.73 -25.35C33.12 -24.16 33.32 -22.85 33.32 -21.41L14.2 -21.41C14.61 -24.47 15.68 -26.86 17.39 -28.58C19.1 -30.31 21.45 -31.17 24.43 -31.17Z M60.67 -35.71C58.12 -35.71 55.83 -35.27 53.8 -34.38C51.76 -33.49 50.04 -32.26 48.62 -30.7C47.21 -29.14 46.13 -27.29 45.38 -25.16C44.63 -23.03 44.25 -20.74 44.25 -18.29C44.25 -15.26 44.67 -12.58 45.5 -10.24C46.33 -7.9 47.5 -5.94 48.99 -4.36C50.48 -2.77 52.25 -1.57 54.3 -0.75C56.35 0.08 58.59 0.49 61.02 0.49C62.29 0.49 63.57 0.38 64.87 0.16C66.16 -0.06 67.42 -0.39 68.63 -0.83C69.85 -1.27 70.99 -1.83 72.05 -2.52C73.12 -3.2 74.03 -4 74.79 -4.93L73.06 -7.18C72.78 -7.58 72.39 -7.77 71.88 -7.77C71.49 -7.77 71.02 -7.6 70.47 -7.24C69.93 -6.88 69.25 -6.49 68.44 -6.07C67.63 -5.66 66.67 -5.27 65.54 -4.91C64.42 -4.55 63.09 -4.37 61.54 -4.37C59.87 -4.37 58.37 -4.64 57.02 -5.19C55.68 -5.73 54.53 -6.55 53.55 -7.65C52.58 -8.75 51.82 -10.12 51.26 -11.77C50.71 -13.41 50.41 -15.34 50.36 -17.56L73.75 -17.56C74.33 -17.56 74.72 -17.72 74.93 -18.05C75.14 -18.37 75.25 -19.02 75.25 -19.99C75.25 -22.49 74.88 -24.72 74.15 -26.67C73.42 -28.63 72.41 -30.27 71.12 -31.6C69.82 -32.93 68.28 -33.95 66.5 -34.66C64.72 -35.36 62.77 -35.71 60.67 -35.71ZM60.81 -31.17C62.22 -31.17 63.47 -30.93 64.57 -30.46C65.67 -29.98 66.6 -29.31 67.37 -28.44C68.13 -27.57 68.71 -26.55 69.1 -25.35C69.5 -24.16 69.69 -22.85 69.69 -21.41L50.57 -21.41C50.98 -24.47 52.05 -26.86 53.76 -28.58C55.47 -30.31 57.82 -31.17 60.81 -31.17Z M89.54 -51.12L83.33 -51.12L83.33 0L89.54 0L89.54 -16.8L91.28 -16.8C91.97 -16.8 92.49 -16.72 92.84 -16.57C93.19 -16.42 93.54 -16.1 93.88 -15.62L105.44 -1.21C105.76 -0.8 106.11 -0.49 106.46 -0.3C106.82 -0.1 107.26 0 107.77 0L113.32 0L99.58 -17.35C99.27 -17.82 98.96 -18.23 98.62 -18.59C98.29 -18.94 97.91 -19.26 97.49 -19.54C97.89 -19.77 98.24 -20.04 98.55 -20.34C98.86 -20.64 99.18 -20.99 99.51 -21.38L112.45 -35.16L106.83 -35.16C106.25 -35.16 105.79 -35.04 105.44 -34.81C105.09 -34.58 104.75 -34.28 104.4 -33.91L93.29 -22C92.92 -21.61 92.59 -21.35 92.29 -21.22C91.99 -21.1 91.6 -21.03 91.14 -21.03L89.54 -21.03Z M131.33 -35.71C128.79 -35.71 126.5 -35.27 124.46 -34.38C122.42 -33.49 120.7 -32.26 119.29 -30.7C117.88 -29.14 116.8 -27.29 116.04 -25.16C115.29 -23.03 114.92 -20.74 114.92 -18.29C114.92 -15.26 115.33 -12.58 116.17 -10.24C117 -7.9 118.16 -5.94 119.65 -4.36C121.15 -2.77 122.92 -1.57 124.96 -0.75C127.01 0.08 129.25 0.49 131.68 0.49C132.95 0.49 134.24 0.38 135.53 0.16C136.83 -0.06 138.08 -0.39 139.3 -0.83C140.51 -1.27 141.65 -1.83 142.72 -2.52C143.78 -3.2 144.69 -4 145.46 -4.93L143.72 -7.18C143.44 -7.58 143.05 -7.77 142.54 -7.77C142.15 -7.77 141.68 -7.6 141.14 -7.24C140.59 -6.88 139.92 -6.49 139.11 -6.07C138.3 -5.66 137.33 -5.27 136.21 -4.91C135.09 -4.55 133.75 -4.37 132.2 -4.37C130.53 -4.37 129.03 -4.64 127.69 -5.19C126.35 -5.73 125.19 -6.55 124.22 -7.65C123.25 -8.75 122.48 -10.12 121.93 -11.77C121.37 -13.41 121.07 -15.34 121.02 -17.56L144.42 -17.56C145 -17.56 145.39 -17.72 145.6 -18.05C145.81 -18.37 145.91 -19.02 145.91 -19.99C145.91 -22.49 145.54 -24.72 144.82 -26.67C144.09 -28.63 143.07 -30.27 141.78 -31.6C140.48 -32.93 138.94 -33.95 137.16 -34.66C135.38 -35.36 133.44 -35.71 131.33 -35.71ZM131.47 -31.17C132.88 -31.17 134.14 -30.93 135.24 -30.46C136.34 -29.98 137.27 -29.31 138.03 -28.44C138.79 -27.57 139.37 -26.55 139.77 -25.35C140.16 -24.16 140.36 -22.85 140.36 -21.41L121.23 -21.41C121.65 -24.47 122.71 -26.86 124.43 -28.58C126.14 -30.31 128.49 -31.17 131.47 -31.17Z M153.79 0L159.97 0L159.97 -22.39C160.94 -24.77 162.15 -26.59 163.59 -27.84C165.04 -29.08 166.84 -29.71 168.99 -29.71C170.19 -29.71 171.13 -29.6 171.8 -29.38C172.47 -29.16 172.97 -29.05 173.29 -29.05C173.85 -29.05 174.21 -29.34 174.37 -29.92L175.17 -34.53C174.5 -34.93 173.77 -35.23 172.98 -35.45C172.19 -35.67 171.31 -35.78 170.34 -35.78C167.96 -35.78 165.88 -35.09 164.11 -33.72C162.34 -32.34 160.86 -30.43 159.65 -27.97L159.24 -33.46C159.14 -34.08 158.97 -34.52 158.72 -34.78C158.46 -35.03 158 -35.16 157.33 -35.16L153.79 -35.16Z"></path></g></g></g></svg>